<svg width="151" height="156" viewBox="0 0 151 156" fill="none" xmlns="http://www.w3.org/2000/svg">
<g clip-path="url(#clip0)">
<path d="M87.8362 152.25C83.8936 157.222 75.8998 154.498 75.8049 148.15L74.4158 55.3075H136.762C148.055 55.3075 154.353 68.3675 147.331 77.223L87.8362 152.25Z" fill="url(#paint0_linear)"/>
<path d="M87.8362 152.25C83.8936 157.222 75.8998 154.498 75.8049 148.15L74.4158 55.3075H136.762C148.055 55.3075 154.353 68.3675 147.331 77.223L87.8362 152.25Z" fill="url(#paint1_linear)" fill-opacity="0.2"/>
<path d="M62.4803 2.85908C66.4228 -2.11276 74.4168 0.61145 74.5118 6.95922L75.1205 99.8016H13.5545C2.2616 99.8016 -4.03667 86.7416 2.9856 77.8861L62.4803 2.85908Z" fill="#3ECF8E"/>
</g>
<path d="M109.532 80.5938C110.369 78.8535 111.093 75.1958 111.705 69.6206C112.317 64.0454 112.622 59.4531 112.622 55.8438C112.622 51.1387 111.029 46.3853 107.843 41.5835C104.656 36.7817 101.1 33.2852 97.1729 31.0938C97.9454 30.8359 99.0075 30.4009 100.359 29.7886C101.711 29.1763 102.838 28.7251 103.739 28.4351C104.64 28.145 105.541 28 106.443 28C108.052 28 109.886 28.4028 111.946 29.2085C114.006 30.0142 116.018 31.1421 117.981 32.5923C119.945 34.0425 121.602 36.0083 122.954 38.4897C124.306 40.9712 124.982 43.6621 124.982 46.5625C124.982 49.8496 124.37 53.8779 123.147 58.6475C121.924 63.417 120.057 68.0254 117.547 72.4727C115.036 76.9199 112.365 79.627 109.532 80.5938ZM103.353 52.75C103.932 52.75 104.704 53.04 105.67 53.6201C106.185 55.5537 106.443 57.3262 106.443 58.9375C106.443 63.9648 105.96 69.4756 104.994 75.4697C103.964 73.4072 102.918 70.4746 101.856 66.6719C100.794 62.8691 100.263 60.291 100.263 58.9375C100.263 57.2617 100.569 55.8115 101.18 54.5869C101.792 53.3623 102.516 52.75 103.353 52.75ZM94.083 62.0312C94.083 64.416 95.0164 67.5259 96.8832 71.3608C98.75 75.1958 101.003 78.7891 103.642 82.1406C102.805 85.6211 101.776 89.0049 100.552 92.292C106.346 96.7393 112.558 98.9629 119.188 98.9629C116.227 101.154 113.009 102.25 109.532 102.25C106.893 102.25 103.803 101.283 100.263 99.3496V114.625C100.263 117.719 98.9753 120.555 96.4004 123.133C93.8255 125.711 90.9931 127 87.9032 127C85.5214 127 83.896 126.452 83.027 125.356C82.158 124.261 81.7234 122.746 81.7234 120.812V102.25C81.7234 100.768 81.0475 99.124 79.6957 97.3193C77.5714 98.9951 75.0126 100.236 72.0193 101.042C69.0259 101.847 66.0809 102.25 63.1841 102.25C62.6048 102.25 62.0576 102.202 61.5426 102.105C61.0276 102.008 60.5931 101.896 60.2391 101.767C59.885 101.638 59.531 101.444 59.1769 101.187C58.8229 100.929 58.5654 100.735 58.4045 100.606C58.2435 100.478 57.986 100.22 57.632 99.833C57.2779 99.4463 57.0687 99.2207 57.0043 99.1562C59.1286 99.1562 61.8162 98.4634 65.067 97.0776C68.3178 95.6919 71.1663 93.9678 73.6125 91.9053C72.1319 91.0029 70.7157 90.3262 69.3639 89.875C71.0376 84.9121 72.486 80.0298 73.709 75.228C74.9321 70.4263 75.5437 67.0586 75.5437 65.125C75.5437 59.1953 74.6746 54.6191 72.9366 51.3965C71.1985 48.1738 68.9777 46.5625 66.274 46.5625C63.3772 46.5625 60.7058 47.207 58.2596 48.4961C59.5471 41.5996 61.8484 36.4595 65.1636 33.0757C68.4788 29.6919 72.9688 28 78.6336 28C82.9465 28 87.3721 29.8208 91.9104 33.4624C96.4487 37.104 100.07 41.5029 102.773 46.6592C96.9798 46.9814 94.083 52.1055 94.083 62.0312ZM63.1841 52.75C67.304 52.75 69.3639 55.8438 69.3639 62.0312C69.3639 64.8027 69.0742 67.5742 68.4949 70.3457C67.9155 73.1172 67.0143 76.5171 65.7912 80.5454C64.5681 84.5737 63.6991 87.6836 63.1841 89.875C59.0643 82.2051 57.0043 73.9551 57.0043 65.125C57.0043 61.9023 57.1009 58.9053 57.294 56.1338C59.1608 53.8779 61.1242 52.75 63.1841 52.75ZM56.1353 88.3281C50.9855 93.4844 47.1553 96.0625 44.6448 96.0625C42.9711 96.0625 41.056 94.6445 38.8995 91.8086C36.7431 88.9727 34.7153 85.3955 32.8163 81.0771C30.9173 76.7588 29.3241 71.7314 28.0366 65.9951C26.7492 60.2588 26.1055 54.8125 26.1055 49.6562C26.1055 47.4004 26.5078 45.064 27.3125 42.647C28.1171 40.23 29.2436 37.9097 30.692 35.686C32.1404 33.4624 34.0877 31.6255 36.5338 30.1753C38.98 28.7251 41.6837 28 44.6448 28C48.5072 28 53.2385 29.0957 58.839 31.2871C56.2641 33.8652 54.2846 37.7808 52.9006 43.0337C51.5166 48.2866 50.8246 54.6191 50.8246 62.0312C50.8246 73.7617 52.5948 82.5273 56.1353 88.3281V88.3281Z" fill="white"/>
<defs>
<linearGradient id="paint0_linear" x1="74.4158" y1="75.893" x2="129.848" y2="99.1112" gradientUnits="userSpaceOnUse">
<stop stop-color="#249361"/>
<stop offset="1" stop-color="#3ECF8E"/>
</linearGradient>
<linearGradient id="paint1_linear" x1="49.8494" y1="42.2137" x2="75.1709" y2="89.8183" gradientUnits="userSpaceOnUse">
<stop/>
<stop offset="1" stop-opacity="0"/>
</linearGradient>
<clipPath id="clip0">
<rect width="150.283" height="156" fill="white"/>
</clipPath>
</defs>
</svg>
